<svg width="23" height="23" viewBox="0 0 23 23" fill="none" xmlns="http://www.w3.org/2000/svg">
<path d="M21.0067 16.0521C20.6904 18.6012 18.6013 20.6904 16.0521 21.0066C14.5092 21.1983 13.0717 20.7766 11.9504 19.9525C11.3084 19.4829 11.4617 18.4862 12.2284 18.2562C15.1129 17.3841 17.3842 15.1033 18.2659 12.2187C18.4959 11.4616 19.4925 11.3083 19.9621 11.9408C20.7767 13.0716 21.1984 14.5091 21.0067 16.0521Z" fill="#FA9751"/>
<path d="M9.57407 1.91666C5.34783 1.91666 1.91699 5.3475 1.91699 9.57375C1.91699 13.8 5.34783 17.2308 9.57407 17.2308C13.8003 17.2308 17.2312 13.8 17.2312 9.57375C17.2216 5.3475 13.8003 1.91666 9.57407 1.91666ZM8.67324 8.50041L10.9828 9.30541C11.8166 9.6025 12.2191 10.1871 12.2191 11.0879C12.2191 12.1229 11.3949 12.9758 10.3887 12.9758H10.3024V13.0237C10.3024 13.4167 9.97657 13.7425 9.58366 13.7425C9.19074 13.7425 8.86491 13.4167 8.86491 13.0237V12.9662C7.80116 12.9183 6.94824 12.0271 6.94824 10.9154C6.94824 10.5225 7.27408 10.1967 7.66699 10.1967C8.05991 10.1967 8.38574 10.5225 8.38574 10.9154C8.38574 11.2604 8.63491 11.5383 8.94158 11.5383H10.3791C10.5995 11.5383 10.772 11.3371 10.772 11.0879C10.772 10.7525 10.7145 10.7333 10.4941 10.6567L8.18449 9.85166C7.36032 9.56416 6.94824 8.97958 6.94824 8.06916C6.94824 7.03416 7.77241 6.18125 8.77866 6.18125H8.86491V6.14291C8.86491 5.75 9.19074 5.42416 9.58366 5.42416C9.97657 5.42416 10.3024 5.75 10.3024 6.14291V6.20041C11.3662 6.24833 12.2191 7.13958 12.2191 8.25125C12.2191 8.64416 11.8932 8.97 11.5003 8.97C11.1074 8.97 10.7816 8.64416 10.7816 8.25125C10.7816 7.90625 10.5324 7.62833 10.2257 7.62833H8.78824C8.56782 7.62833 8.39533 7.82958 8.39533 8.07875C8.38574 8.40458 8.44324 8.42375 8.67324 8.50041Z" fill="#5078E6"/>
</svg>
