<svg width="23" height="23" viewBox="0 0 23 23" fill="none" xmlns="http://www.w3.org/2000/svg">
<path d="M14.2299 3.78531V7.42698H12.7924V3.78531C12.7924 3.52656 12.5624 3.40198 12.4091 3.40198C12.3612 3.40198 12.3133 3.41156 12.2654 3.43073L4.66578 6.29614C4.15786 6.48781 3.83203 6.96698 3.83203 7.51323V8.15531C2.95995 8.80698 2.39453 9.85156 2.39453 11.0303V7.51323C2.39453 6.37281 3.09411 5.35698 4.15786 4.95448L11.767 2.07948C11.9779 2.00281 12.1983 1.96448 12.4091 1.96448C13.3674 1.96448 14.2299 2.74073 14.2299 3.78531Z" fill="#5078E6"/>
<path d="M20.604 13.8957V14.854C20.604 15.1128 20.4027 15.3236 20.1344 15.3332H18.7352C18.2273 15.3332 17.7673 14.9594 17.729 14.4611C17.7002 14.164 17.8152 13.8861 18.0069 13.6944C18.1794 13.5123 18.419 13.4165 18.6777 13.4165H20.1248C20.4027 13.4261 20.604 13.6369 20.604 13.8957Z" fill="#FA9751"/>
<path d="M18.667 12.4106H19.6445C20.1716 12.4106 20.6029 11.9793 20.6029 11.4522V11.0306C20.6029 9.04683 18.9833 7.42725 16.9995 7.42725H5.99787C5.18328 7.42725 4.43578 7.69558 3.83203 8.15558C2.95995 8.80725 2.39453 9.85183 2.39453 11.0306V17.4802C2.39453 19.4639 4.01412 21.0835 5.99787 21.0835H16.9995C18.9833 21.0835 20.6029 19.4639 20.6029 17.4802V17.2981C20.6029 16.771 20.1716 16.3397 19.6445 16.3397H18.8108C17.8908 16.3397 17.0091 15.7743 16.7695 14.8831C16.5683 14.1547 16.8079 13.4552 17.287 12.9856C17.6416 12.6214 18.1304 12.4106 18.667 12.4106ZM13.4154 12.2189H6.70703C6.31412 12.2189 5.98828 11.8931 5.98828 11.5002C5.98828 11.1072 6.31412 10.7814 6.70703 10.7814H13.4154C13.8083 10.7814 14.1341 11.1072 14.1341 11.5002C14.1341 11.8931 13.8083 12.2189 13.4154 12.2189Z" fill="#5078E6"/>
</svg>
