<svg width="33" height="33" viewBox="0 0 33 33" fill="none" xmlns="http://www.w3.org/2000/svg">
<path d="M20.664 5.42739V10.475H18.6716V5.42739C18.6716 5.06875 18.3528 4.89606 18.1402 4.89606C18.0738 4.89606 18.0074 4.90935 17.941 4.93591L7.40747 8.90757C6.70346 9.17323 6.25184 9.83739 6.25184 10.5945V11.4845C5.04307 12.3878 4.25937 13.8356 4.25937 15.4694V10.5945C4.25937 9.01383 5.22904 7.60582 6.70347 7.04793L17.2503 3.06299C17.5425 2.95673 17.848 2.90359 18.1402 2.90359C19.4686 2.90359 20.664 3.97953 20.664 5.42739Z" fill="#5078E6"/>
<path d="M29.4989 19.441V20.7694C29.4989 21.128 29.22 21.4202 28.8481 21.4335H26.9087C26.2047 21.4335 25.5671 20.9155 25.514 20.2247C25.4742 19.813 25.6336 19.4278 25.8992 19.1621C26.1383 18.9097 26.4704 18.7769 26.829 18.7769H28.8348C29.22 18.7902 29.4989 19.0824 29.4989 19.441Z" fill="#FA9751"/>
<path d="M26.8141 17.3826H28.169C28.8996 17.3826 29.4973 16.7849 29.4973 16.0543V15.4698C29.4973 12.7202 27.2525 10.4754 24.5029 10.4754H9.25383C8.12476 10.4754 7.08868 10.8473 6.25184 11.4849C5.04307 12.3882 4.25937 13.836 4.25937 15.4698V24.4094C4.25937 27.159 6.50422 29.4039 9.25383 29.4039H24.5029C27.2525 29.4039 29.4973 27.159 29.4973 24.4094V24.157C29.4973 23.4264 28.8996 22.8287 28.169 22.8287H27.0134C25.7382 22.8287 24.5161 22.045 24.1841 20.8097C23.9051 19.8001 24.2372 18.8305 24.9014 18.1796C25.3928 17.6748 26.0703 17.3826 26.8141 17.3826ZM19.535 17.117H10.2368C9.69217 17.117 9.24054 16.6653 9.24054 16.1207C9.24054 15.5761 9.69217 15.1245 10.2368 15.1245H19.535C20.0796 15.1245 20.5312 15.5761 20.5312 16.1207C20.5312 16.6653 20.0796 17.117 19.535 17.117Z" fill="#5078E6"/>
</svg>
