<svg width="23" height="23" viewBox="0 0 23 23" fill="none" xmlns="http://www.w3.org/2000/svg">
<path d="M20.1253 7.20663V12.8416C20.1253 13.1675 19.8091 13.3975 19.5024 13.3016L15.7362 12.1325C14.7012 11.8162 13.5895 12.0845 12.8324 12.8416C12.0657 13.6083 11.7878 14.7295 12.1137 15.7645L13.2732 19.502C13.3691 19.8087 13.1391 20.125 12.8132 20.125H7.20699C3.90074 20.125 1.91699 18.1508 1.91699 14.835V7.20663C1.91699 3.89079 3.90074 1.91663 7.20699 1.91663H14.8353C18.1416 1.91663 20.1253 3.89079 20.1253 7.20663Z" fill="#5078E6"/>
<path d="M21.0445 18.0551L19.4824 18.5821C19.0511 18.7259 18.7061 19.0613 18.5624 19.5021L18.0353 21.0642C17.5849 22.4155 15.6874 22.3867 15.2657 21.0355L13.4928 15.3334C13.1478 14.2026 14.1924 13.1484 15.3136 13.503L21.0253 15.2759C22.367 15.6976 22.3861 17.6046 21.0445 18.0551Z" fill="#FA9751"/>
</svg>
