<svg width="29" height="25" viewBox="0 0 29 25" fill="none" xmlns="http://www.w3.org/2000/svg">
<path d="M24.1457 15.0937L23.104 13.3645C22.8853 12.9791 22.6873 12.2499 22.6873 11.8228V9.18742C22.6873 6.7395 21.2498 4.62492 19.1769 3.63534C18.6353 2.677 17.6353 2.08325 16.4894 2.08325C15.354 2.08325 14.3332 2.69784 13.7915 3.66659C11.7603 4.677 10.354 6.77075 10.354 9.18742V11.8228C10.354 12.2499 10.1561 12.9791 9.93734 13.3541L8.88526 15.0937C8.46859 15.7916 8.37484 16.5624 8.63526 17.2708C8.88526 17.9687 9.47901 18.5103 10.2498 18.7708C12.2707 19.4583 14.3957 19.7916 16.5207 19.7916C18.6457 19.7916 20.7707 19.4583 22.7915 18.7812C23.5207 18.5416 24.0832 17.9895 24.354 17.2708C24.6248 16.552 24.5519 15.7603 24.1457 15.0937Z" fill="#9095A5"/>
<path d="M19.4466 20.8436C19.0091 22.0519 17.8529 22.9165 16.4987 22.9165C15.6758 22.9165 14.8633 22.5832 14.2904 21.9894C13.9571 21.6769 13.7071 21.2603 13.5612 20.8332C13.6966 20.854 13.8321 20.8644 13.9779 20.8853C14.2175 20.9165 14.4675 20.9478 14.7175 20.9686C15.3112 21.0207 15.9154 21.0519 16.5196 21.0519C17.1133 21.0519 17.7071 21.0207 18.2904 20.9686C18.5091 20.9478 18.7279 20.9374 18.9362 20.9061C19.1029 20.8853 19.2696 20.8644 19.4466 20.8436Z" fill="#9095A5"/>
<circle cx="7" cy="17" r="6.5" fill="#577EEA" stroke="#F7F9FC"/>
<path d="M7.736 16.712C8.25333 16.776 8.648 16.952 8.92 17.24C9.192 17.528 9.328 17.888 9.328 18.32C9.328 18.6453 9.24533 18.9413 9.08 19.208C8.91467 19.4747 8.664 19.688 8.328 19.848C7.99733 20.0027 7.592 20.08 7.112 20.08C6.712 20.08 6.32533 20.024 5.952 19.912C5.584 19.7947 5.26933 19.6347 5.008 19.432L5.456 18.624C5.65867 18.7947 5.904 18.9307 6.192 19.032C6.48533 19.128 6.78667 19.176 7.096 19.176C7.464 19.176 7.752 19.1013 7.96 18.952C8.17333 18.7973 8.28 18.5893 8.28 18.328C8.28 18.0667 8.17867 17.864 7.976 17.72C7.77867 17.5707 7.47467 17.496 7.064 17.496H6.552V16.784L7.824 15.272H5.28V14.4H9.096V15.096L7.736 16.712Z" fill="white"/>
</svg>
