<svg width="26" height="25" viewBox="0 0 26 25" fill="none" xmlns="http://www.w3.org/2000/svg">
<path d="M21.0174 9.6042C19.132 9.6042 18.3612 8.27087 19.2987 6.63545C19.8404 5.68754 19.5174 4.4792 18.5695 3.93754L16.7674 2.90629C15.9445 2.4167 14.882 2.70837 14.3924 3.53129L14.2779 3.7292C13.3404 5.36462 11.7987 5.36462 10.8508 3.7292L10.7362 3.53129C10.2674 2.70837 9.20494 2.4167 8.38202 2.90629L6.57994 3.93754C5.63202 4.4792 5.3091 5.69795 5.85077 6.64587C6.79869 8.27087 6.02785 9.6042 4.14244 9.6042C3.0591 9.6042 2.16327 10.4896 2.16327 11.5834V13.4167C2.16327 14.5 3.04869 15.3959 4.14244 15.3959C6.02785 15.3959 6.79869 16.7292 5.85077 18.3646C5.3091 19.3125 5.63202 20.5209 6.57994 21.0625L8.38202 22.0938C9.20494 22.5834 10.2674 22.2917 10.757 21.4688L10.8716 21.2709C11.8091 19.6355 13.3508 19.6355 14.2987 21.2709L14.4133 21.4688C14.9029 22.2917 15.9654 22.5834 16.7883 22.0938L18.5904 21.0625C19.5383 20.5209 19.8612 19.3021 19.3195 18.3646C18.3716 16.7292 19.1424 15.3959 21.0279 15.3959C22.1112 15.3959 23.007 14.5105 23.007 13.4167V11.5834C22.9966 10.5 22.1112 9.6042 21.0174 9.6042ZM12.5799 15.8855C10.7154 15.8855 9.19452 14.3646 9.19452 12.5C9.19452 10.6355 10.7154 9.11462 12.5799 9.11462C14.4445 9.11462 15.9654 10.6355 15.9654 12.5C15.9654 14.3646 14.4445 15.8855 12.5799 15.8855Z" fill="#9095A5"/>
</svg>
