<svg width="23" height="23" viewBox="0 0 23 23" fill="none" xmlns="http://www.w3.org/2000/svg">
<path d="M19.5118 12.1995C19.1572 12.1995 18.8601 11.9312 18.8218 11.5766C18.5918 9.46828 17.4609 7.57078 15.7168 6.36328C15.4005 6.14286 15.3239 5.71161 15.5443 5.39536C15.7647 5.07911 16.1959 5.00245 16.5122 5.22286C18.5918 6.66995 19.9334 8.93161 20.2114 11.4329C20.2497 11.8162 19.9718 12.1612 19.5884 12.1995C19.5597 12.1995 19.5405 12.1995 19.5118 12.1995Z" fill="#5078E6"/>
<path d="M3.58446 12.2475C3.5653 12.2475 3.53655 12.2475 3.51738 12.2475C3.13405 12.2091 2.85613 11.8641 2.89446 11.4808C3.15321 8.97955 4.47571 6.71788 6.53613 5.26121C6.8428 5.0408 7.28363 5.11746 7.50405 5.42413C7.72446 5.74038 7.6478 6.17163 7.34113 6.39205C5.61613 7.61871 4.49488 9.51621 4.28405 11.615C4.24571 11.9791 3.93905 12.2475 3.58446 12.2475Z" fill="#5078E6"/>
<path d="M15.3234 20.2208C14.1446 20.7862 12.8796 21.0737 11.5571 21.0737C10.1771 21.0737 8.86419 20.7671 7.63752 20.1441C7.29252 19.9812 7.15836 19.5596 7.33086 19.2146C7.49377 18.8696 7.91544 18.7354 8.26044 18.8983C8.86419 19.205 9.50628 19.4158 10.1579 19.5404C11.0396 19.7129 11.9404 19.7225 12.8221 19.5691C13.4738 19.4541 14.1159 19.2529 14.71 18.9654C15.0646 18.8025 15.4863 18.9366 15.6396 19.2912C15.8121 19.6362 15.6779 20.0579 15.3234 20.2208Z" fill="#5078E6"/>
<path d="M11.5484 1.92625C10.063 1.92625 8.84589 3.13375 8.84589 4.62875C8.84589 6.12375 10.0534 7.33125 11.5484 7.33125C13.0434 7.33125 14.2509 6.12375 14.2509 4.62875C14.2509 3.13375 13.0434 1.92625 11.5484 1.92625Z" fill="#FA9751"/>
<path d="M4.84001 13.2921C3.3546 13.2921 2.13751 14.4996 2.13751 15.9946C2.13751 17.4896 3.34501 18.6971 4.84001 18.6971C6.33501 18.6971 7.54251 17.4896 7.54251 15.9946C7.54251 14.4996 6.32543 13.2921 4.84001 13.2921Z" fill="#5078E6"/>
<path d="M18.1603 13.2921C16.6749 13.2921 15.4578 14.4996 15.4578 15.9946C15.4578 17.4896 16.6653 18.6971 18.1603 18.6971C19.6553 18.6971 20.8628 17.4896 20.8628 15.9946C20.8628 14.4996 19.6553 13.2921 18.1603 13.2921Z" fill="#5078E6"/>
</svg>
