<svg width="21" height="20" viewBox="0 0 21 20" fill="none" xmlns="http://www.w3.org/2000/svg">
<path d="M14.5154 0.416668H6.4846C2.99627 0.416668 0.916687 2.49625 0.916687 5.98458V14.0058C0.916687 17.5038 2.99627 19.5833 6.4846 19.5833H14.5059C17.9942 19.5833 20.0738 17.5038 20.0738 14.0154V5.98458C20.0834 2.49625 18.0038 0.416668 14.5154 0.416668ZM7.73044 14.6958C7.73044 14.9642 7.5196 15.175 7.25127 15.175H4.57752C4.30919 15.175 4.09835 14.9642 4.09835 14.6958V10.2683C4.09835 9.66458 4.5871 9.17583 5.19085 9.17583H7.25127C7.5196 9.17583 7.73044 9.38667 7.73044 9.655V14.6958ZM12.3113 14.6958C12.3113 14.9642 12.1004 15.175 11.8321 15.175H9.15835C8.89002 15.175 8.67919 14.9642 8.67919 14.6958V5.9175C8.67919 5.31375 9.16794 4.825 9.77169 4.825H11.2284C11.8321 4.825 12.3209 5.31375 12.3209 5.9175V14.6958H12.3113ZM16.9017 14.6958C16.9017 14.9642 16.6909 15.175 16.4225 15.175H13.7488C13.4804 15.175 13.2696 14.9642 13.2696 14.6958V11.2938C13.2696 11.0254 13.4804 10.8146 13.7488 10.8146H15.8092C16.4129 10.8146 16.9017 11.3033 16.9017 11.9071V14.6958Z" fill="#5078E6"/>
</svg>
