<svg width="23" height="23" viewBox="0 0 23 23" fill="none" xmlns="http://www.w3.org/2000/svg">
<path d="M20.0966 15.41C19.8666 17.9687 18.017 19.6458 15.3337 19.6458H6.70866C4.06366 19.6458 1.91699 17.4991 1.91699 14.8541V8.14579C1.91699 5.53913 3.48866 3.71829 5.93241 3.41163C6.18158 3.37329 6.44033 3.35413 6.70866 3.35413H15.3337C15.5828 3.35413 15.8224 3.36371 16.0524 3.40204C18.3428 3.67038 19.8953 5.27079 20.0966 7.58996C20.1253 7.86788 19.8953 8.09788 19.6174 8.09788H18.132C17.212 8.09788 16.3591 8.45246 15.7457 9.08496C15.0174 9.79413 14.6532 10.7908 14.7395 11.7875C14.8928 13.5316 16.4262 14.902 18.247 14.902H19.6174C19.8953 14.902 20.1253 15.132 20.0966 15.41Z" fill="white"/>
<path d="M21.0834 10.5129V12.4871C21.0834 13.0142 20.6617 13.4454 20.125 13.4646H18.2467C17.2117 13.4646 16.263 12.7075 16.1767 11.6725C16.1192 11.0687 16.3492 10.5033 16.7517 10.1104C17.1063 9.74623 17.595 9.5354 18.1317 9.5354H20.125C20.6617 9.55457 21.0834 9.98582 21.0834 10.5129Z" fill="white"/>
</svg>
