<svg width="23" height="23" viewBox="0 0 23 23" fill="none" xmlns="http://www.w3.org/2000/svg">
<path d="M11.4427 2.11787L9.1331 7.49412H6.82352C6.44019 7.49412 6.06644 7.52287 5.70227 7.59954L6.6606 5.29954L6.69894 5.21329L6.75644 5.05996C6.78519 4.99287 6.80435 4.93537 6.8331 4.88746C7.94477 2.30954 9.1906 1.50454 11.4427 2.11787Z" fill="#5078E6"/>
<path d="M17.9497 7.75293L17.9305 7.74335C17.3555 7.58043 16.7709 7.49418 16.1768 7.49418H10.1776L12.3339 2.4821L12.3626 2.41502C12.4968 2.46293 12.6405 2.53002 12.7843 2.57793L14.9022 3.46918C16.0809 3.95793 16.9051 4.46585 17.413 5.07918C17.4993 5.19418 17.5759 5.2996 17.6526 5.42418C17.7389 5.55835 17.8059 5.69252 17.8443 5.83627C17.8826 5.92252 17.9114 5.99918 17.9305 6.08543C18.0743 6.57418 18.0839 7.13002 17.9497 7.75293Z" fill="#FA9751"/>
<path d="M17.5282 9.12329C17.0969 8.9987 16.6465 8.93162 16.1769 8.93162H6.82358C6.17191 8.93162 5.55858 9.0562 4.98358 9.30537C3.31608 10.0241 2.14691 11.682 2.14691 13.6083V15.477C2.14691 15.707 2.16608 15.9275 2.19483 16.1575C2.40566 19.205 4.03483 20.8341 7.08233 21.0354C7.30274 21.0641 7.52316 21.0833 7.76275 21.0833H15.2377C18.7836 21.0833 20.6523 19.3966 20.8344 16.0425C20.844 15.8604 20.8536 15.6687 20.8536 15.477V13.6083C20.8536 11.4904 19.4448 9.70787 17.5282 9.12329ZM13.8961 16.052H9.10441C8.71149 16.052 8.38566 15.7262 8.38566 15.3333C8.38566 14.9404 8.71149 14.6145 9.10441 14.6145H13.8961C14.289 14.6145 14.6148 14.9404 14.6148 15.3333C14.6148 15.7262 14.289 16.052 13.8961 16.052Z" fill="#5078E6"/>
</svg>
